<?xml version="1.0" standalone="no"?>
<!DOCTYPE svg PUBLIC "-//W3C//DTD SVG 20010904//EN"
 "http://www.w3.org/TR/2001/REC-SVG-20010904/DTD/svg10.dtd">
<svg version="1.0" xmlns="http://www.w3.org/2000/svg"
 width="512.000000pt" height="512.000000pt" viewBox="0 0 512.000000 512.000000"
 preserveAspectRatio="xMidYMid meet">
<metadata>
Created by potrace 1.14, written by Peter Selinger 2001-2017
</metadata>
<g transform="translate(0.000000,512.000000) scale(0.100000,-0.100000)"
fill="#000000" stroke="none">
<path d="M1467 5109 c-92 -22 -183 -90 -233 -175 -52 -89 -51 -4 -49 -2404 l1
-2235 21 -53 c51 -126 149 -208 277 -233 29 -5 485 -9 1095 -9 982 1 1049 2
1099 19 109 37 188 113 233 221 l23 55 1 2240 c2 2414 4 2309 -49 2400 -38 63
-95 115 -166 149 l-65 31 -1075 2 c-609 1 -1091 -3 -1113 -8z m157 -110 c54
-25 57 -107 4 -139 -62 -38 -126 8 -118 85 5 50 62 77 114 54z m231 -39 c15
-16 17 -26 9 -48 -8 -22 -15 -27 -44 -27 -29 0 -36 5 -44 27 -8 22 -6 32 9 48
10 11 26 20 35 20 9 0 25 -9 35 -20z m979 -75 c7 -19 -3 -45 -18 -46 -15 -1
-463 -1 -497 0 -28 1 -42 21 -33 46 5 13 45 15 274 15 229 0 269 -2 274 -15z
m946 -2325 l0 -1960 -1220 0 -1220 0 0 1960 0 1960 1220 0 1220 0 0 -1960z
m-1023 -2097 c97 -51 104 -191 12 -249 -36 -23 -47 -24 -206 -25 -174 -1 -197
3 -238 44 -39 40 -50 120 -22 172 15 30 58 64 90 73 15 4 94 6 176 6 128 -1
155 -4 188 -21z"/>
</g>
</svg>
